<svg width="67" height="113" viewBox="0 0 67 113" fill="none" xmlns="http://www.w3.org/2000/svg">
<path d="M56.0496 29.6471C66.2886 -8.04768 43.5899 100.821 41.8296 101.874L27.161 97.4639C38.4427 70.9798 45.8106 67.3419 56.0496 29.6471Z" fill="#2B50AA"/>
<path d="M12.1723 38.635C4.13325 0.344304 16.4116 110.79 16.4116 110.79L26.2795 111.032L40.8949 105.661C29.678 79.4858 20.2113 76.9257 12.1723 38.635Z" fill="#272727"/>
<path d="M56.2332 10.6746C56.2332 -39.1786 66.9278 101.768 66.9278 101.768H41.8711C47.4799 66.1939 56.2332 60.5278 56.2332 10.6746Z" fill="#272727"/>
<path d="M12.0627 19.5896C12.0627 -30.3592 1.64952 110.858 1.64952 110.858L26.0469 110.992C20.5857 75.3495 12.0627 69.5384 12.0627 19.5896Z" fill="#2B50AA"/>
</svg>
